<svg width="82" height="81" viewBox="0 0 82 81" fill="none" xmlns="http://www.w3.org/2000/svg">
<path d="M66.6087 53.1964H56.3587V81H38.4944V64.5429H28.1794V81H10.25V53.2286H0L10.25 43.0071V25.3286H17.9294V35.325L33.2881 19.9929L66.6087 53.1964ZM82 16.1357C82 25.0393 74.6786 32.2714 65.6651 32.2714C56.6516 32.2714 49.3302 25.0393 49.3302 16.1357C49.3302 7.23214 56.6516 0 65.6651 0C74.6786 0 82 7.23214 82 16.1357ZM71.7175 19.9929C71.7175 16.2321 68.073 15.1714 66.5111 14.6571C63.55 13.725 63.2897 12.5679 63.3222 11.9571C63.4198 10.4786 64.8841 10.125 66.2508 10.4464C67.3246 10.7036 68.431 11.4107 69.0492 11.925L71.0016 9.41786C70.0579 8.67857 68.8214 7.74643 67.0317 7.36071V4.91786H64.2008V7.26429C61.4675 7.48929 59.6127 9.41786 59.6127 12.0214C59.6127 14.5929 61.2722 15.7821 62.9643 16.6821C64.3635 17.4214 68.2683 18.1929 68.0405 20.1536C67.9103 21.2143 66.9016 21.9857 65.2095 21.7607C63.7452 21.5679 62.1833 20.1857 62.1833 20.1857L60.0357 22.5321C61.3373 23.6893 62.704 24.4286 64.2008 24.75V27.0643H67.0317V24.8786C69.7325 24.5893 71.7175 22.5321 71.7175 19.9929Z" fill="#00BF63"/>
</svg>
